<svg xmlns="http://www.w3.org/2000/svg" viewBox="0 0 576 512">
  <path fill="#fff" d="M100 279a30 30 0 0 0 0 43l131 131 5 5c21 21 46 34 73 41a183 183 0 0 0 235-176V157a38 38 0 1 0-75 0v73c0 5-6 7-9 4L279 53a30 30 0 0 0-43 43l119 119c5 5 5 13 0 18-5 4-12 4-17 0L203 98a30 30 0 0 0-43 43l135 134c5 5 5 13 0 18s-13 5-18 0L158 174a30 30 0 0 0-43 42l120 120c5 5 5 12 0 17s-13 5-18 0l-74-74a30 30 0 0 0-43 0z" opacity=".4"/>
  <path fill="#fff" d="M401 92c2 13 13 21 25 20 13-2 21-14 20-26l-1-8c-6-37-34-65-71-70l-8-2a23 23 0 1 0-6 45l8 1c16 3 29 16 32 32zM84 388c-2-13-14-21-26-19-13 1-21 13-19 25l1 8c5 37 34 65 70 71l8 1a23 23 0 1 0 7-45l-8-1c-17-3-30-16-32-32Z"/>
</svg>
