<svg xmlns="http://www.w3.org/2000/svg" viewBox="0 0 576 512">
  <path fill="#fff" d="M58 389a68 68 0 0 0 96 96l90-90c-22-29-31-66-25-101l-33-33zM263 68c6 11 10 24 10 38v28l53 53c41-7 84 5 115 37l46 46a151 151 0 0 0 33-159c-4-9-16-11-23-4l-54 54c-2 2-6 4-10 4h-39c-9 0-16-7-16-15v-39c0-4 2-8 5-11l53-53c8-8 6-20-4-23a150 150 0 0 0-169 44z" opacity=".4"/>
  <path fill="#fff" d="M102 6c-6-4-14-4-20 1L40 50c-6 5-6 13-2 19l75 113c5 8 15 13 25 13h47l85 86c-14 31-8 70 18 95l119 120c18 17 46 17 64 0l57-57c17-18 17-46 0-64L409 256a85 85 0 0 0-96-18l-86-86v-46c0-10-5-20-13-25z"/>
</svg>
